<svg width="206" height="145" viewBox="0 0 206 145" fill="none" xmlns="http://www.w3.org/2000/svg">
<path d="M85.0788 121.116C80.083 116.12 77.5851 110.092 77.5851 103.031C77.5851 95.9706 80.1163 89.909 85.1787 84.8466L193.888 12.5072L121.348 121.216C116.419 126.145 110.391 128.61 103.264 128.61C96.1362 128.61 90.0746 126.112 85.0788 121.116ZM103.164 13.1067C91.0405 13.1067 79.4169 15.5047 68.2929 20.3007C57.1688 25.0967 47.6102 31.4913 39.6169 39.4846C31.6236 47.4779 25.2622 57.0033 20.5329 68.0607C15.8035 79.1181 13.4388 90.7084 13.4388 102.832C13.4388 116.953 16.6361 130.408 23.0308 143.198L11.8402 148.793C4.51296 134.272 0.849365 119.018 0.849365 103.031C0.849365 89.0431 3.5471 75.7542 8.94258 63.1648C14.3381 50.5753 21.5986 39.7178 30.7243 30.5921C39.85 21.4664 50.7409 14.2058 63.397 8.81032C76.053 3.41484 89.3086 0.717102 103.164 0.717102C124.612 0.717102 144.129 6.8453 161.715 19.1017L150.324 26.6953C135.803 17.6363 120.083 13.1067 103.164 13.1067ZM187.293 44.6803C199.416 62.2655 205.478 81.7159 205.478 103.031C205.478 119.018 201.814 134.272 194.487 148.793L183.296 142.998C189.691 130.342 192.888 116.953 192.888 102.832C192.888 86.1788 188.492 70.5919 179.7 56.0707L187.293 44.6803Z" fill="white" fill-opacity="0.1"/>
</svg>
