<svg width="14" height="13" viewBox="0 0 14 13" fill="none" xmlns="http://www.w3.org/2000/svg">
<g clip-path="url(#clip0_775_1971)">
<path d="M5.16553 6.5C5.16553 6.07147 5.29261 5.65257 5.5307 5.29626C5.76878 4.93996 6.10718 4.66225 6.50311 4.49826C6.89903 4.33427 7.33469 4.29136 7.755 4.37496C8.17531 4.45857 8.56139 4.66492 8.86441 4.96793C9.16744 5.27095 9.3738 5.65701 9.4574 6.0773C9.54101 6.4976 9.4981 6.93324 9.3341 7.32915C9.17011 7.72505 8.89239 8.06344 8.53607 8.30152C8.17975 8.53959 7.76083 8.66667 7.33229 8.66667C6.75763 8.66667 6.20651 8.43839 5.80016 8.03206C5.39382 7.62574 5.16553 7.07464 5.16553 6.5ZM3.99409 6.5C3.99409 7.16012 4.18984 7.80541 4.55658 8.35428C4.92333 8.90315 5.4446 9.33095 6.05449 9.58358C6.66437 9.83622 7.33548 9.90234 7.98294 9.77358C8.6304 9.64483 9.22514 9.32698 9.69196 8.86024C10.1588 8.39349 10.4767 7.79881 10.6055 7.15138C10.7344 6.50396 10.6683 5.83288 10.4158 5.22299C10.1632 4.6131 9.73542 4.0918 9.18657 3.725C8.63772 3.35821 7.99243 3.16239 7.33229 3.16231C6.89395 3.1623 6.45991 3.24862 6.05494 3.41635C5.64997 3.58407 5.282 3.82993 4.97206 4.13986C4.66211 4.4498 4.41625 4.81775 4.24851 5.2227C4.08078 5.62766 3.99445 6.06168 3.99447 6.5M10.0216 3.03002C10.0216 3.18429 10.0673 3.33511 10.1529 3.46341C10.2386 3.59171 10.3604 3.69172 10.5029 3.7508C10.6454 3.80989 10.8022 3.82538 10.9536 3.79534C11.1049 3.76529 11.2439 3.69105 11.353 3.582C11.4621 3.47295 11.5365 3.33399 11.5666 3.18269C11.5968 3.0314 11.5814 2.87456 11.5224 2.73202C11.4634 2.58947 11.3635 2.46762 11.2352 2.38187C11.107 2.29612 10.9562 2.25032 10.8019 2.25027C10.5951 2.25038 10.3968 2.33255 10.2505 2.47875C10.1043 2.62495 10.022 2.82323 10.0219 3.03002M4.70669 11.7909C4.29447 11.7862 3.88613 11.7105 3.49956 11.5673C3.21723 11.463 2.96178 11.2968 2.7519 11.0811C2.53582 10.8717 2.36963 10.6163 2.26566 10.334C2.12219 9.94747 2.04639 9.53914 2.04159 9.12689C2.01011 8.44172 2.00335 8.23588 2.00335 6.50013C2.00335 4.76437 2.01011 4.55905 2.04159 3.87336C2.04677 3.4612 2.12238 3.05296 2.26515 2.66627C2.3695 2.38395 2.53563 2.12852 2.75139 1.91865C2.96091 1.70245 3.21646 1.53626 3.49905 1.43242C3.88575 1.28904 4.29428 1.21337 4.70669 1.20875C5.3919 1.17726 5.59774 1.17051 7.33229 1.17051C9.06683 1.17051 9.27344 1.17726 9.95915 1.20875C10.3713 1.21392 10.7796 1.28953 11.1663 1.43229C11.4487 1.53645 11.7042 1.7026 11.9139 1.91852C12.1299 2.12826 12.296 2.38373 12.4002 2.66615C12.5435 3.05269 12.6191 3.46102 12.6237 3.87323C12.6552 4.55892 12.662 4.76424 12.662 6.5C12.662 8.23575 12.6557 8.44108 12.6237 9.12676C12.6188 9.53895 12.5432 9.94722 12.4002 10.3339C12.292 10.6142 12.1263 10.8687 11.9138 11.0812C11.7013 11.2936 11.4467 11.4591 11.1663 11.5672C10.7797 11.7105 10.3714 11.7861 9.95915 11.7907C9.27395 11.8222 9.06811 11.829 7.33229 11.829C5.59646 11.829 5.39113 11.8227 4.70669 11.7907M4.6524 0.0393823C4.11318 0.0500495 3.57968 0.152143 3.07462 0.341314C2.64084 0.504535 2.24786 0.760365 1.92305 1.09098C1.59209 1.41547 1.33616 1.80846 1.17323 2.24237C0.984098 2.74746 0.882045 3.28098 0.871415 3.82022C0.839424 4.51329 0.832031 4.7348 0.832031 6.5C0.832031 8.2652 0.839424 8.48671 0.871415 9.17978C0.882095 9.71898 0.984192 10.2525 1.17336 10.7575C1.33628 11.1914 1.59216 11.5844 1.92305 11.909C2.24796 12.2395 2.64086 12.4953 3.07449 12.6588C3.57957 12.8479 4.11306 12.95 4.65227 12.9607C5.34576 12.9922 5.56689 13.0001 7.33216 13.0001C9.09742 13.0001 9.31894 12.9927 10.012 12.9607C10.5513 12.9501 11.0848 12.848 11.5898 12.6588C12.0217 12.4918 12.414 12.2365 12.7414 11.909C13.0688 11.5816 13.3242 11.1894 13.4912 10.7575C13.6806 10.2525 13.7827 9.71901 13.7932 9.17978C13.8246 8.4862 13.8314 8.2652 13.8314 6.5C13.8314 4.7348 13.824 4.51329 13.7932 3.82022C13.7825 3.28102 13.6804 2.74753 13.4912 2.2425C13.3277 1.80885 13.0719 1.41594 12.7415 1.09098C12.4171 0.760205 12.0243 0.504307 11.5906 0.341186C11.0855 0.151918 10.552 0.0498637 10.0127 0.0393823C9.31971 0.00790196 9.09806 0 7.33229 0C5.56651 0 5.34525 0.00739216 4.65189 0.0393823" fill="url(#paint0_radial_775_1971)"/>
<path d="M5.16553 6.5C5.16553 6.07147 5.29261 5.65257 5.5307 5.29626C5.76878 4.93996 6.10718 4.66225 6.50311 4.49826C6.89903 4.33427 7.33469 4.29136 7.755 4.37496C8.17531 4.45857 8.56139 4.66492 8.86441 4.96793C9.16744 5.27095 9.3738 5.65701 9.4574 6.0773C9.54101 6.4976 9.4981 6.93324 9.3341 7.32915C9.17011 7.72505 8.89239 8.06344 8.53607 8.30152C8.17975 8.53959 7.76083 8.66667 7.33229 8.66667C6.75763 8.66667 6.20651 8.43839 5.80016 8.03206C5.39382 7.62574 5.16553 7.07464 5.16553 6.5ZM3.99409 6.5C3.99409 7.16012 4.18984 7.80541 4.55658 8.35428C4.92333 8.90315 5.4446 9.33095 6.05449 9.58358C6.66437 9.83622 7.33548 9.90233 7.98294 9.77358C8.6304 9.64483 9.22514 9.32698 9.69196 8.86024C10.1588 8.39349 10.4767 7.79881 10.6055 7.15138C10.7344 6.50396 10.6683 5.83288 10.4158 5.22299C10.1632 4.6131 9.73542 4.0918 9.18657 3.725C8.63772 3.35821 7.99243 3.16239 7.33229 3.16231C6.89395 3.1623 6.45991 3.24862 6.05494 3.41635C5.64997 3.58407 5.282 3.82993 4.97206 4.13986C4.66211 4.4498 4.41625 4.81775 4.24851 5.2227C4.08078 5.62766 3.99445 6.06168 3.99447 6.5M10.0216 3.03002C10.0216 3.18429 10.0673 3.33511 10.1529 3.46341C10.2386 3.59171 10.3604 3.69172 10.5029 3.7508C10.6454 3.80989 10.8022 3.82538 10.9536 3.79534C11.1049 3.76529 11.2439 3.69105 11.353 3.582C11.4621 3.47295 11.5365 3.33399 11.5666 3.18269C11.5968 3.0314 11.5814 2.87456 11.5224 2.73202C11.4634 2.58947 11.3635 2.46762 11.2352 2.38187C11.107 2.29612 10.9562 2.25032 10.8019 2.25027C10.5951 2.25038 10.3968 2.33255 10.2505 2.47875C10.1043 2.62495 10.022 2.82323 10.0219 3.03002M4.70669 11.7909C4.29447 11.7862 3.88613 11.7105 3.49956 11.5673C3.21723 11.463 2.96178 11.2968 2.7519 11.0811C2.53582 10.8717 2.36963 10.6163 2.26566 10.334C2.12219 9.94747 2.04639 9.53914 2.04159 9.12689C2.01011 8.44172 2.00335 8.23588 2.00335 6.50013C2.00335 4.76437 2.01011 4.55905 2.04159 3.87336C2.04677 3.4612 2.12238 3.05296 2.26515 2.66627C2.3695 2.38395 2.53563 2.12852 2.75139 1.91865C2.96091 1.70245 3.21646 1.53626 3.49905 1.43242C3.88575 1.28904 4.29428 1.21337 4.70669 1.20875C5.3919 1.17726 5.59774 1.17051 7.33229 1.17051C9.06683 1.17051 9.27344 1.17726 9.95915 1.20875C10.3713 1.21392 10.7796 1.28953 11.1663 1.43229C11.4487 1.53645 11.7042 1.7026 11.9139 1.91852C12.1299 2.12826 12.296 2.38373 12.4002 2.66615C12.5435 3.05269 12.6191 3.46102 12.6237 3.87323C12.6552 4.55892 12.662 4.76424 12.662 6.5C12.662 8.23575 12.6557 8.44108 12.6237 9.12676C12.6188 9.53895 12.5432 9.94722 12.4002 10.3339C12.292 10.6142 12.1263 10.8687 11.9138 11.0812C11.7013 11.2936 11.4467 11.4591 11.1663 11.5672C10.7797 11.7105 10.3714 11.7861 9.95915 11.7907C9.27395 11.8222 9.06811 11.829 7.33229 11.829C5.59646 11.829 5.39113 11.8227 4.70669 11.7907M4.6524 0.0393823C4.11318 0.0500495 3.57968 0.152143 3.07462 0.341314C2.64084 0.504535 2.24786 0.760365 1.92305 1.09098C1.59209 1.41547 1.33616 1.80846 1.17323 2.24237C0.984098 2.74746 0.882045 3.28098 0.871415 3.82022C0.839424 4.51329 0.832031 4.7348 0.832031 6.5C0.832031 8.2652 0.839424 8.48671 0.871415 9.17978C0.882095 9.71898 0.984192 10.2525 1.17336 10.7575C1.33628 11.1914 1.59216 11.5845 1.92305 11.909C2.24796 12.2395 2.64086 12.4953 3.07449 12.6588C3.57957 12.8479 4.11306 12.95 4.65227 12.9607C5.34576 12.9922 5.56689 13.0001 7.33216 13.0001C9.09742 13.0001 9.31894 12.9927 10.012 12.9607C10.5513 12.9501 11.0848 12.848 11.5898 12.6588C12.0217 12.4918 12.414 12.2365 12.7414 11.909C13.0688 11.5816 13.3242 11.1894 13.4912 10.7575C13.6806 10.2525 13.7827 9.71901 13.7932 9.17978C13.8246 8.4862 13.8314 8.2652 13.8314 6.5C13.8314 4.7348 13.824 4.51329 13.7932 3.82022C13.7825 3.28102 13.6804 2.74753 13.4912 2.2425C13.3277 1.80885 13.0719 1.41594 12.7415 1.09098C12.4171 0.760205 12.0243 0.504307 11.5906 0.341186C11.0855 0.151918 10.552 0.0498637 10.0127 0.0393823C9.31971 0.00790196 9.09806 0 7.33229 0C5.56651 0 5.34525 0.00739216 4.65189 0.0393823" fill="url(#paint1_radial_775_1971)"/>
</g>
<defs>
<radialGradient id="paint0_radial_775_1971" cx="0" cy="0" r="1" gradientUnits="userSpaceOnUse" gradientTransform="translate(2.55919 13.0614) scale(16.9704 16.9697)">
<stop offset="0.09" stop-color="#FA8F21"/>
<stop offset="0.78" stop-color="#D82D7E"/>
</radialGradient>
<radialGradient id="paint1_radial_775_1971" cx="0" cy="0" r="1" gradientUnits="userSpaceOnUse" gradientTransform="translate(8.71633 13.6438) scale(13.375 13.3745)">
<stop offset="0.64" stop-color="#8C3AAA" stop-opacity="0"/>
<stop offset="1" stop-color="#8C3AAA"/>
</radialGradient>
<clipPath id="clip0_775_1971">
<rect width="13" height="13" fill="white" transform="translate(0.832031)"/>
</clipPath>
</defs>
</svg>
