<svg width="143" height="140" viewBox="0 0 143 140" fill="none" xmlns="http://www.w3.org/2000/svg">
<path d="M54.8695 0.750427C44.5615 0.715348 34.4697 3.70552 25.8445 9.35043L60.2445 43.7504C61.3902 44.7279 62.3287 45.9248 63.0047 47.2705C63.6807 48.6163 64.0805 50.0837 64.1807 51.5864C64.2809 53.089 64.0793 54.5965 63.588 56.0201C63.0966 57.4437 62.3253 58.7545 61.3195 59.8754C60.1986 60.8812 58.8878 61.6525 57.4642 62.1439C56.0406 62.6352 54.5331 62.8368 53.0305 62.7366C51.5278 62.6364 50.0604 62.2366 48.7146 61.5606C47.3689 60.8846 46.172 59.9461 45.1945 58.8004L9.71954 24.4004C3.58609 33.4258 0.394399 44.1273 0.582043 55.0379C0.638659 69.4184 6.3764 83.1938 16.545 93.3624C26.7137 103.531 40.489 109.269 54.8695 109.325C59.5757 109.351 64.2679 108.81 68.8445 107.713L104.857 143.725C109.918 148.786 116.781 151.629 123.938 151.629C131.095 151.629 137.959 148.786 143.02 143.725C148.08 138.665 150.923 131.801 150.923 124.644C150.923 117.487 148.08 110.624 143.02 105.563L107.007 69.5504C108.104 64.9738 108.645 60.2816 108.62 55.5754C108.763 48.4269 107.478 41.3217 104.841 34.6759C102.204 28.0301 98.2672 21.9772 93.2617 16.8716C88.2563 11.766 82.2825 7.71042 75.6901 4.94225C69.0978 2.17409 62.0195 0.748997 54.8695 0.750427V0.750427ZM97.8695 55.0379C97.8617 58.8573 97.3189 62.6567 96.257 66.3254L94.6445 72.2379L98.9445 76.5379L134.957 112.55C136.491 114.002 137.711 115.753 138.543 117.694C139.375 119.635 139.801 121.726 139.795 123.838C139.855 125.958 139.454 128.065 138.618 130.014C137.783 131.963 136.534 133.707 134.957 135.125C133.501 136.654 131.75 137.871 129.81 138.703C127.869 139.534 125.781 139.963 123.67 139.963C121.559 139.963 119.47 139.534 117.529 138.703C115.589 137.871 113.838 136.654 112.382 135.125L76.3695 99.1129L72.0695 94.8129L66.157 96.4254C62.4883 97.4873 58.6889 98.0301 54.8695 98.0379C43.4481 98.0062 32.477 93.5793 24.232 85.6754C20.0624 81.752 16.7604 76.999 14.5386 71.7223C12.3169 66.4457 11.2246 60.7623 11.332 55.0379C11.3395 51.042 11.8818 47.065 12.9445 43.2129L36.5945 66.8629C38.5929 69.0376 41.0042 70.7927 43.6879 72.0259C46.3715 73.2591 49.2738 73.9457 52.2255 74.0458C55.1773 74.1458 58.1194 73.6573 60.8804 72.6087C63.6413 71.56 66.166 69.9723 68.307 67.9379C70.3414 65.7969 71.9291 63.2722 72.9778 60.5112C74.0264 57.7503 74.5149 54.8081 74.4149 51.8564C74.3148 48.9047 73.6282 46.0024 72.395 43.3188C71.1618 40.6351 69.4067 38.2238 67.232 36.2254L43.582 12.5754C47.0583 11.476 50.6862 10.9318 54.332 10.9629C65.7535 10.9947 76.7245 15.4216 84.9695 23.3254C93.2221 31.8216 97.848 43.1936 97.8695 55.0379V55.0379Z" fill="white" fill-opacity="0.1"/>
</svg>
