<svg width="25" height="24" viewBox="0 0 25 24" fill="none" xmlns="http://www.w3.org/2000/svg">
<path d="M12.832 5.9C13.992 5.9 14.932 6.84 14.932 8C14.932 9.16 13.992 10.1 12.832 10.1C11.672 10.1 10.732 9.16 10.732 8C10.732 6.84 11.672 5.9 12.832 5.9ZM12.832 14.9C15.802 14.9 18.932 16.36 18.932 17V18.1H6.73203V17C6.73203 16.36 9.86203 14.9 12.832 14.9ZM12.832 4C10.622 4 8.83203 5.79 8.83203 8C8.83203 10.21 10.622 12 12.832 12C15.042 12 16.832 10.21 16.832 8C16.832 5.79 15.042 4 12.832 4ZM12.832 13C10.162 13 4.83203 14.34 4.83203 17V19C4.83203 19.55 5.28203 20 5.83203 20H19.832C20.382 20 20.832 19.55 20.832 19V17C20.832 14.34 15.502 13 12.832 13Z" fill="white"/>
</svg>
